<svg xmlns="http://www.w3.org/2000/svg" viewBox="0 0 512 512" fill="#8D6E63">
  <path d="M140.6 21.2C154.1 7.7 172.4 .1 191.5 .1s37.4 7.7 50.9 21.2l19.8 19.8c13.5 13.5 21.2 31.8 21.2 50.9c0 7.6-1.2 15-3.5 22l-5.5 17.4 17.5 5.5c7.1 2.2 14.4 3.4 22 3.4c19.1 0 37.4-7.7 50.9-21.2l19.8-19.8c13.5-13.5 31.8-21.2 50.9-21.2s37.4 7.7 50.9 21.2c27 27 27 70.8 0 97.8l-19.8 19.8c-13.5 13.5-21.2 31.8-21.2 50.9c0 7.6 1.2 14.9 3.5 22l5.5 17.5 17.5 5.5c7.1 2.2 14.4 3.4 22 3.4c19.1 0 37.4-7.7 50.9-21.2l19.8-19.8c13.5-13.5 31.8-21.2 50.9-21.2c39.1 0 70.9 31.8 70.9 70.9C486.1 395.2 391.3 512 256 512C114.6 512 0 397.4 0 256c0-66.7 26.5-130.8 73.7-178l19.8-19.8c13.5-13.5 31.8-21.2 50.9-21.2s37.4 7.7 50.9 21.2l19.8 19.8c13.5 13.5 21.2 31.8 21.2 50.9c0 7.6-1.2 15-3.5 22l-5.5 17.5 17.5 5.5c7.1 2.2 14.4 3.4 22 3.4c19.1 0 37.4-7.7 50.9-21.2L336.8 136c27-27 27-70.8 0-97.8c-13.5-13.5-31.8-21.2-50.9-21.2s-37.4 7.7-50.9 21.2l-19.8 19.8c-13.5 13.5-21.2 31.8-21.2 50.9c0 7.6 1.2 14.9 3.5 22l5.5 17.5-17.5 5.5c-7.1 2.2-14.4 3.4-22 3.4c-19.1 0-37.4-7.7-50.9-21.2l-19.8-19.8c-27-27-27-70.8 0-97.8zm9.9 263.6c-8.5 14.8-12.5 31.5-12.5 48.1H160l23-69.1-32.5-5.4z"/>
</svg>