<svg xmlns="http://www.w3.org/2000/svg" viewBox="0 0 512 512" fill="#A1887F">
  <path d="M512 32c0 113.6-84.6 207.5-194.2 222c-7.1-53.4-30.6-101.6-65.3-139.3C290.8 93.1 351.1 80 416 80c16.7 0 33 1.4 49 4c10.8 1.7 19.1-9.2 14.7-19.2C452.1 20.5 415.8 0 376 0C238.8 0 128 109.8 128 246c0 16.3 1.6 32.3 4.6 47.7c-17.5 10-29.3 28.3-29.3 49.4c0 75.8 28.9 143 74.8 194.7c14.3 16 33.7 25.3 55 25.3h155.8c-44.6-38.9-80.3-89.4-78-140.7c58.5 3.2 108.4-5.8 144.3-22.4c46.1-21.3 75.9-54.4 75.9-90.7c0-14.9-4.9-28.9-13.5-42c102-11.6 177.3-97.6 177.3-202.4c0-8.3-.5-16.5-1.5-24.5c-1.2-8.5-8.8-15.1-17.3-15.1C650.9 32 584.3 32 512 32zM120 362c12.8-3.8 16-18 16-30H96c0 12 3.2 26.2 16 30h8zm376 134c.1-17-4.5-46.3-20-46c-2 0-2.7 .3-4 1c-7.2 4-9.9 10.8-13.2 45.1c-.5 5.2 3.3 9.9 8.5 9.9h20.7c4.4 0 8-3.6 8-10zM144 232v26c0 3.3 2.7 6 6 6h26c3.3 0 6-2.7 6-6V232c0-3.3-2.7-6-6-6H150c-3.3 0-6 2.7-6 6zm12 230c0 6.4 3.6 10 8 10h20.7c5.2 0 9-4.8 8.5-9.9c-3.3-34.3-6-41.1-13.2-45.1c-1.3-.7-2-.9-4-1c-15.5-.3-20.1 29-20 46zM252 496c-1.2-11.8-5.2-51-8-72.2c-1.6-12.3-1.9-26.6-12-29.8h-8c-8.8 0-15.9 7.2-16 16c-.1 9.9 7.5 76.2 10 95.9c.7 5.5 8.5 5.5 9.2 0c1.3-10.2 1.5-38.3 1.5-39.9c0-1.8 1.5-3.2 3.3-3c1.7 .2 3 1.8 2.9 3.5c-.8 16.9 9.2 29.6 17.1 29.6c1.4 0 2.4-.9 3-2.9c.5-1.7-3.4-10.2-3-16.2c.5-7.7 2-8.4 4-9.1c3.7-1.3 11.2 8.2 11.2 18.3c0 3.6-1.5 6.6-3.1 8.8zm25-83.6c-3.2 7-12 8.5-24 8.5c10.9 15.5 23.2 25.3 39 25.3c17.9 0 31.7-12.9 32-30.8c.3-14.5-7.5-25.2-16-35.3c-1.6-1.9-4.7-2.1-6.4-.2c-8.4 9.4-19.6 20.7-24.7 32.5zM343 483c-1.5 4.6-6.3 3.9-6.8 2c-2.5-9.5-6.8-22.3-24.2-22.3c-19 0-20 13-20 17.3c0 4.8 2.4 9.8 8 13l24 14c4.2 2.5 10 3.4 14 6.8c6.8 5.8 8 9.8 8 18.2c0 11.8-9.4 21.8-14 26.2c-2.1 2-5.5 3.9-8 3.9h-88c-4.7 0-9.1-2-12.4-5.5l-2.2-2.4c-2.8-3-2.6-7.7 .4-10.4c3-2.8 7.7-2.6 10.4 .4l2.2 2.4c.4 .5 1 .8 1.7 .7h87.9c1.3 0 3.2-1.8 4.7-3.4c3-3.2 6.9-9.8 6.9-12c0-3.5 0-3.5-3.2-6.3c-2.5-2.1-5.5-2.7-10.8-5.7l-24-14c-9.7-5.6-16-14.7-16-29c0-16.8 10.8-38.3 40-38.3c33.8 0 41.6 27.5 44 33l1 4.2c.6 2.6-1 5.1-3.6 5.7zm56-157c0 38 24 73.4 64.1 97.6c14.7 8.9 31.1 15.8 48.9 20.6c13.3 3.6 26.4-7.5 23.8-21c-1.1-5.6-5.2-9.9-10.6-11.4c-52.9-15.2-86.2-53.1-86.2-93.8c0-17.2 5.5-33.5 15.6-47.4c4.5-6.2 3.4-14.9-2.3-19.9c-6.9-6.1-17.4-5.2-23.4 1.9C415.9 273.7 408 298.5 408 326z"/>
</svg>