<svg xmlns="http://www.w3.org/2000/svg" viewBox="0 0 512 512" fill="#4CAF50">
  <path d="M256 32c-17.6 0-32 14.4-32 32v32c0 17.6 14.4 32 32 32s32-14.4 32-32V64c0-17.6-14.4-32-32-32zm-8 96c-13.3 0-24 10.7-24 24v16c0 13.3 10.7 24 24 24s24-10.7 24-24v-16c0-13.3-10.7-24-24-24zm48 32c-8.8 0-16 7.2-16 16v32c0 8.8 7.2 16 16 16s16-7.2 16-16v-32c0-8.8-7.2-16-16-16zm-96 16c-8.8 0-16 7.2-16 16v32c0 8.8 7.2 16 16 16s16-7.2 16-16v-32c0-8.8-7.2-16-16-16zm-16 80c-8.8 0-16 7.2-16 16v32c0 8.8 7.2 16 16 16s16-7.2 16-16v-32c0-8.8-7.2-16-16-16zm48 0c-8.8 0-16 7.2-16 16v32c0 8.8 7.2 16 16 16s16-7.2 16-16v-32c0-8.8-7.2-16-16-16zm64 0c-8.8 0-16 7.2-16 16v32c0 8.8 7.2 16 16 16s16-7.2 16-16v-32c0-8.8-7.2-16-16-16zm-72 80c-8.8 0-16 7.2-16 16v48c0 8.8 7.2 16 16 16s16-7.2 16-16v-48c0-8.8-7.2-16-16-16zm-56 16c-8.8 0-16 7.2-16 16v32c0 8.8 7.2 16 16 16s16-7.2 16-16v-32c0-8.8-7.2-16-16-16zm112 0c-8.8 0-16 7.2-16 16v32c0 8.8 7.2 16 16 16s16-7.2 16-16v-32c0-8.8-7.2-16-16-16zm48-16c-8.8 0-16 7.2-16 16v48c0 8.8 7.2 16 16 16s16-7.2 16-16v-48c0-8.8-7.2-16-16-16zM256 32c-17.6 0-32 14.4-32 32v32c0 17.6 14.4 32 32 32s32-14.4 32-32V64c0-17.6-14.4-32-32-32z"/>
</svg>