<svg xmlns="http://www.w3.org/2000/svg" viewBox="0 0 512 512" fill="#E6C06E">
  <path d="M512 180c0 35.3-14.3 64-31.9 64c-7.1 0-14.3-3.6-21.1-9.9c-5.5-5.1-10.3-11.4-14.3-17.9c0 50.4-40.9 96.3-93.7 106.1c5.6 5.4 11.7 9.6 18.2 12.2c13.6 5.4 30.5 5.4 50.5 5.4c10.2 0 20.9 5 20.9 17c0 11.7-10.8 17-21 17c-30.2 0-48.3 0-67.8-7.3c-18.5-7-34.7-18.6-49.2-37c-15.8 15.4-37.2 25.9-61.6 28.7V456c0 13.3-10.7 24-24 24s-24-10.7-24-24V345.6c-4.7-.6-9.3-1.5-13.8-2.7c-22.9-6-42.2-19.1-56.2-37c-14.5 18.5-30.7 30.1-49.2 37c-19.6 7.3-37.6 7.3-67.8 7.3c-10.2 0-21-5.3-21-17c0-12 10.7-17 20.9-17c20 0 36.9 0 50.5-5.4c13.5-5.4 25.9-14.5 36.5-29.6C36.2 275.2 0 233.1 0 180c0-35.3 14.3-64 31.9-64c7.1 0 14.3 3.6 21.1 9.9c7 6.5 12.9 14.5 17.3 23.1c.8-9.2 3.2-17.7 7.1-25.1C88.9 104.4 111.5 91.8 144 90.2V70.2C122 68.5 103.9 60.8 93.2 48.3C81.9 35.1 77.7 18.7 77.7 2c0-.7 0-1.3 .1-2h64.4c-.1 .7-.1 1.3-.1 2c0 7.2 1.9 12.7 4.9 16.2C150.1 22.2 156.9 26 167.8 27c1.4 .1 2.8 .2 4.2 .2v125.4c-30.7 9.2-53.6 35.1-56.9 67.4c5.3-8.5 11.4-16.8 18.5-24.2c14.4-15 32.9-27.9 53.5-35.1C172.2 153.5 160 135.7 160 116c0-35.3 14.3-64 31.9-64c7.1 0 14.3 3.6 21.1 9.9c7.6 7.1 14 16.5 18.5 26.5c4.5-10 10.9-19.4 18.5-26.5c6.8-6.4 14-9.9 21.1-9.9c17.6 0 31.9 28.7 31.9 64c0 19.7-12.2 37.5-27.1 44.7c20.6 7.2 39.1 20.1 53.5 35.1c9.7 10.1 17.5 21.7 23.2 33.4c12.5-22.3 35.1-38.2 62.1-40.3V64c0-17.7 14.3-32 32-32s32 14.3 32 32v91.8c32.5 1.6 55.1 14.2 66.6 33.6c3.9 7.4 6.2 15.9 7.1 25.1c4.4-8.6 10.3-16.6 17.3-23.1c6.8-6.4 14-9.9 21.1-9.9c17.6 0 31.9 28.7 31.9 64z"/>
</svg>