<svg xmlns="http://www.w3.org/2000/svg" viewBox="0 0 512 512" fill="#FFC107">
  <path d="M448 96c0-35.3-28.7-64-64-64s-64 28.7-64 64c0 23.7 12.9 44.3 32 55.4V160H160v-8.6c19.1-11.1 32-31.7 32-55.4c0-35.3-28.7-64-64-64S64 60.7 64 96c0 23.7 12.9 44.3 32 55.4V160c0 17.7 14.3 32 32 32h256c17.7 0 32-14.3 32-32v-8.6c19.1-11.1 32-31.7 32-55.4zM128 96c0-8.8 7.2-16 16-16s16 7.2 16 16s-7.2 16-16 16s-16-7.2-16-16zm288 16c-8.8 0-16-7.2-16-16s7.2-16 16-16s16 7.2 16 16s-7.2 16-16 16zM224 304v64h64V304H224zm64-32h32v32h96v64h32V240H288v32zm-96 0H160V240H96v160h32V304h32v32h64V272zM400 480c0 17.7-14.3 32-32 32H144c-17.7 0-32-14.3-32-32V384H96v96c0 35.3 28.7 64 64 64H352c35.3 0 64-28.7 64-64V384h-16v96z"/>
</svg>