<svg xmlns="http://www.w3.org/2000/svg" viewBox="0 0 512 512" fill="#A5D6A7">
  <path d="M96 32c0-17.7 14.3-32 32-32s32 14.3 32 32c0 3.4-.5 6.7-1.5 9.8c1.2-.6 2.5-1.1 3.9-1.6l85.5-28.5c2.4-.8 4.3-2.7 5.1-5.1s.5-5-.9-7c-8.5-12.6-8.5-28.9 0-41.5c5.9-8.7 17.7-11 26.4-5.1s11 17.7 5.1 26.4c-2.3 3.4-5.4 6.2-9.1 8.2c1.9 2.5 3.1 5.4 3.8 8.4c.7 3 .5 6.2-.5 9.2l-28.5 85.5c-.5 1.5-1.1 2.8-1.7 4.1c34.8 11.8 65.9 31.8 90.6 57.9c25.2 26.5 44.3 58.4 56.1 93.3l89.5-29.8c9.1-3 18.8 1.9 21.9 11c3 9.1-1.9 18.8-11 21.9l-95.3 31.8c2.2 19 2.6 38.2 1.1 57.3c-1.4 17.9-21.9 25.3-34.7 12.5c-12.8-12.8-5.4-33.4 12.5-34.7c7-1 14-2.3 20.8-3.9c-2.9-9.4-2.7-19.5 .6-28.7c-30.2 9.5-62.1 3.1-85.5-17.3c-20.4-17.7-32.7-43.3-34.1-70.5c-17.6-30.3-10.9-69.4 15.9-93.2c.8-.7 1.6-1.4 2.4-2c-.9-7.6-1.4-15.2-1.4-23c0-54.4 22.7-107.1 62.5-144.7c5.4-5.1 13.9-4.9 19 .5s4.9 13.9-.5 19c-34.2 32.1-52.2 77-52.4 123.1c5.2-.2 10.5-.3 15.8-.3c82.2 0 160.1 37.1 212.1 101.2c9.1 11.3 8.3 27.7-2 38c-5.8 5.8-13.5 7.9-21 6.6c-15.3 40.1-44.6 74.8-84.7 97c8.3 21.7-6.6 45.6-30.1 45.6c-96.8 0-189.6-38.6-258.2-107.2S0 330.8 0 234c0-20.9 16.9-38 38-38c11.6 0 22.7 5.3 30 14.4c.8 1 1.6 2.1 2.3 3.1C72 205.8 72 198.9 72 192c0-35.3 28.7-64 64-64c13.3 0 25.6 4 35.8 10.9c1.4-2.8 3.1-5.5 5.2-7.9c12.5-14.9 34.8-16.8 49.7-4.3c7.5 6.3 11.9 15.1 12.3 24.2C248.4 161.8 250.2 177 250.2 192.3c0 86.7-68.8 193-199.3 173.8C56.5 382.9 68 400 86.4 400c58.7 0 112.8 35.7 135.2 92.7c-12.1 4.8-25.9 4.4-38-.9c-18.8-8.3-32.9-24.9-38.8-44.3c-34.6-15.1-60.8-43.2-73.5-78.3c-1.1-3-1.7-6.3-1.7-9.6c0-15.1 12.3-27.3 27.3-27.3c11.9 0 22.2 7.7 25.8 18.9c4.2 13.3 11.7 25.1 21.3 34.4c8.6-21.7 29.7-36.1 52.8-36.1c31.4 0 56.8 25.4 56.8 56.8c0 24.3-15.3 45-36.7 53.2c-13.6 5.2-19.1 21.3-13.9 34.9s21.3 19.1 34.9 13.9c16.9-6.5 30.6-18.6 39.5-33.9c14.9-25.9 42.9-42.9 73.6-42.9c9.1 0 16.5 7.4 16.5 16.5c0 6.9-4.2 12.9-10.3 15.3C335.6 471.7 297.1 488 256 488c-45.2 0-86.8-15.5-119.8-41.4C110.8 422 96 383.4 96 344c0-8.8 7.2-16 16-16s16 7.2 16.1 16c0 29 13.8 53.7 43.7 57.5c39.9 5.1 40.2-17.7 40.2-33.5c0-14.7-11.9-26.6-26.6-26.6c-14.1 0-26.4 9.3-30.2 23c-2.5 8.8-11.7 14-20.5 11.5s-14-11.7-11.5-20.5c.4-1.4 .9-2.7 1.4-4.1c-15-22.3-12-53 7-71.4c.5-.5 1-.9 1.5-1.4c-.6-.3-1.2-.7-1.8-1c-16.8-9.5-25.2-29.2-20.6-48.2c.3-1.3 .7-2.6 1.2-3.8c-5.7-4.2-9.4-11-9.4-18.7c0-21.2 17.1-21.2 21.2-21.2c-5.3-5.5-8.5-13-8.5-21.3c0-17 13.8-30.7 30.7-30.7c2.2 0 4.3 .2 6.3 .7C157.5 92.7 178.5 80 202 80c12.6 0 24.4 3.2 34.7 8.8c3.6-13.7 16-23.8 30.9-23.8c17.5 0 31.7 14.2 31.7 31.7c0 4.4-.9 8.6-2.5 12.4c8.1 9.1 16.4 17.9 24.6 26.8c8.3-3.6 17.5-3.8 25.9-.6c19.9-15.7 31.6-39.7 31.6-65.5c0-12.3-5.2-25.5-14.5-34.7c-14.7-14.6-14.8-38.3-.3-53c8-8.1 19.2-12.3 30.4-11.5c-8.1-9.7-8.8-23.6-1.6-34C383 11.6 373.6 7 362.9 7.3c2.7 6.1 4.1 13 4.1 20.7c0 2.6-.2 5.3-.6 7.9c-1.5 10.7-6.3 20.8-14.2 28.7c-.6 .6-1.3 1.2-1.9 1.7l17.8 19.8c-11 18.7-17.8 40.2-19.5 62.7c-.3 3.9-.5 7.8-.5 11.7c0 1.8 .3 3.5 .8 5.1c4.5 1.1 8 4.8 8 9.5c0 5.3-4.3 9.6-9.6 9.6H224c-5.3 0-9.6-4.3-9.6-9.6c0-5.3 4.3-9.6 9.6-9.6H343.6c.2-2.3 .4-4.6 .6-6.9c-42.1-3-101.3-15.9-101.3-87.7c0-11.6 9.4-21 21-21c7.5 0 14.5 4 18.4 10.3c.5 .8 .9 1.7 1.3 2.5c6.2-6.3 14.9-10.3 24.5-10.3c18.6 0 33.8 15 34 33.6c1.9 .8 3.6 1.9 5.2 3.5c7 7 7 18.4 0 25.5c-2.8 2.8-6.2 4.6-9.9 5.4c-2.2 .5-4.7 .1-6.5-1.1c-.7-.5-1.4-1.1-2.2-1.5c-4.4-2.7-10-3.5-15.1-2c-9.6 2.7-17.6 17.2-16.6 28c.9 9.9 13.7 20.8 36.8 22.9c-1.1-12-10.5-36.5-17.3-50.3c-3.5-7.1-.8-15.7 6.3-19.2s15.7-.8 19.2 6.3c16.4 33.2 25.2 65.4 25.2 65.4s2.9 13.9-4.6 20.9c-.4 .4-.8 .7-1.2 1c-8.4 5.6-18.7 6.2-27.6 1.8c-5.5 30.4-16.9 60-35.1 86.4c-4.2 6-12.5 7.5-18.5 3.4c-4-2.8-6.2-7.3-6.2-11.8c0-2.3 .6-4.7 1.8-6.7c17.2-24.2 28-54 30.7-85.2c-9.3-2.8-17.7-7.1-25.1-12.6c-1 4.7-3.2 9.3-6.4 13.2c-7 8.4-17.4 13.3-28.5 13.3h-8.6c-20.9 0-37.7-16.9-37.7-37.7c0-6.6 1.6-12.8 4.4-18.2c-7.7-12.3-8.9-27.9-2.9-41.3c-5.1-3.9-11.3-6.5-18-7.2c-11.8-1.3-23.7 3.4-30.3 12.7c-3.2 4.5-5.2 9.7-5.9 15.2c-.6 4.8-4.4 8.3-9.2 8.3c-5.5 0-10-4.5-10-10c0-.7 .1-1.4 .2-2.1c.4-3.2 1.1-6.3 2.3-9.3C99.8 84 96 75.4 96 66V32z"/>
</svg>